<svg xmlns="http://www.w3.org/2000/svg" viewBox="0 0 126.432 157.566">
  <g id="Icon" transform="translate(0)">
    <path id="Shape" d="M26.063,0a5.7,5.7,0,0,1-5.706-5.706,5.706,5.706,0,0,1,5.706-5.71h5.162L4.093-20.982a6,6,0,0,1-3.66-7.634,6,6,0,0,1,7.648-3.667L37.059-22.064,2.987-44.193a6.586,6.586,0,0,1-1.935-9.085,6.584,6.584,0,0,1,9.085-1.935l27.111,17.62L48.712-17.105a2.293,2.293,0,0,0,3.115.883,2.305,2.305,0,0,0,1.167-2,2.351,2.351,0,0,0-.288-1.113L46.256-30.906c-2.232-3.744-5.794-11.866-4.529-19.368A25.913,25.913,0,0,1,50.89-66.156a6.49,6.49,0,0,1,9.129.951,6.486,6.486,0,0,1-.954,9.126,12.719,12.719,0,0,0-4.522,7.841A12.554,12.554,0,0,0,56.8-38.821a12.563,12.563,0,0,0,8.247,5.074,12.666,12.666,0,0,0,14.487-10.5,12.685,12.685,0,0,0-10.5-14.5A6.5,6.5,0,0,1,63.6-64.975c-.02-1.285-.034-16.06-.034-16.06-10.949-.741,14.284-1.231,3.765-.071v10.063a6.481,6.481,0,0,1,3.758-.524A25.578,25.578,0,0,1,88.856-59.62l19.2,25.372h18.374V0Z" transform="translate(126.432) rotate(180)" fill="#fff"/>
    <path id="Shape-2" data-name="Shape" d="M41,111.29V87.46A8.46,8.46,0,0,1,49.46,79H71.87a8.46,8.46,0,0,1,8.46,8.46v23.83a8.46,8.46,0,0,1-8.46,8.46H68.75v4.84a1.62,1.62,0,0,1-.48,1.15l-3.75,3.75a.62.62,0,0,0,0,.88l3.34,3.33a2.13,2.13,0,0,1,0,3l-3.34,3.34a.62.62,0,0,0,0,.88l3.75,3.75a1.62,1.62,0,0,1,.48,1.15v3.47a1.391,1.391,0,0,1-.42,1l-7,7a.939.939,0,0,1-1.33,0l-7-7a1.379,1.379,0,0,1-.4-1V119.71H49.46A8.46,8.46,0,0,1,41,111.29Z" fill="#fff"/>
  </g>
</svg>
