<svg id="check-out-icon" xmlns="http://www.w3.org/2000/svg" width="143.998" height="118.38" viewBox="0 0 143.998 118.38">
  <path id="Path_3" data-name="Path 3" d="M114.75,210,78,180.31l21.07-20.49a41,41,0,0,1,43.64-8.71h25.93a9.61,9.61,0,0,1,0,19.22H148.56a3.18,3.18,0,1,0,0,6.35h22.76a11.52,11.52,0,0,0,8.57-3.8l24.54-27.61a10.18,10.18,0,0,1,14.15-.78,9.88,9.88,0,0,1,1,13.95L189,193.65a24.19,24.19,0,0,1-18.12,8.12H123Z" transform="translate(-78 -91.62)" fill="#fff"/>
  <path id="Path_4" data-name="Path 4" d="M164.66,91.62h23.83a8.46,8.46,0,0,1,8.46,8.46v22.41a8.46,8.46,0,0,1-8.46,8.46H164.66a8.46,8.46,0,0,1-8.46-8.46v-3.12h-4.84a1.64,1.64,0,0,1-1.15-.48l-3.75-3.75A.63.63,0,0,0,146,115a.6.6,0,0,0-.44.19l-3.33,3.34a2.14,2.14,0,0,1-3,0l-3.34-3.34a.63.63,0,0,0-.44-.19.6.6,0,0,0-.44.19l-3.75,3.75a1.66,1.66,0,0,1-1.15.48h-3.47a1.38,1.38,0,0,1-1-.42l-7-7a1,1,0,0,1-.28-.67.91.91,0,0,1,.28-.66l7-7a1.33,1.33,0,0,1,1-.4h29.58v-3.14a8.45,8.45,0,0,1,8.44-8.51Z" transform="translate(-78 -91.62)" fill="#fff"/>
</svg>
