<?xml version="1.0" encoding="utf-8"?>
<!DOCTYPE svg PUBLIC "-//W3C//DTD SVG 20010904//EN" "http://www.w3.org/TR/2001/REC-SVG-20010904/DTD/svg10.dtd">
<svg version="1.0" xmlns="http://www.w3.org/2000/svg" width="160px" height="45px" viewBox="0 0 160 45" preserveAspectRatio="xMidYMid meet">
 <g fill="#ffffff">
  <path d="M21 40.7 c0 -2.2 0.6 -3.7 1.5 -4.1 1.2 -0.4 1.5 -3 1.5 -14.6 l0 -14 2.5 0 2.4 0 -2.4 -2.5 c-3.9 -3.8 -3.3 -5.5 2 -5.5 l4.5 0 0 18.9 c0 18.3 -0.1 19.1 -2.2 21.5 -1.3 1.4 -3.9 2.8 -6 3.2 -3.8 0.6 -3.8 0.6 -3.8 -2.9z"/>
  <path d="M7.9 33.1 c-2.1 -1.7 -2.5 -3 -2.9 -10.3 -0.5 -7.7 -0.7 -8.3 -2.7 -8.6 -1.8 -0.3 -2.3 -1 -2.3 -3.3 0 -2.8 0.1 -2.9 5.1 -2.9 l5.1 0 -2.6 -3.1 c-1.4 -1.7 -2.6 -3.5 -2.6 -4 0 -0.5 2 -0.9 4.5 -0.9 l4.5 0 0 4 c0 3.6 0.3 4 2.5 4 2.1 0 2.5 0.5 2.5 2.9 0 2.3 -0.5 3 -2.2 3.3 -1.9 0.2 -2.4 1 -2.6 4.7 -0.5 6.2 0.4 9.1 2.8 9.1 1.6 0 2 0.7 2 3.5 0 3.5 0 3.5 -4.4 3.5 -2.8 0 -5.2 -0.7 -6.7 -1.9z"/>
  <path d="M43.4 34 c-1.1 -0.4 -3.3 -2.2 -4.7 -4 -2.2 -2.6 -2.7 -4.2 -2.7 -8.6 0 -4.7 0.4 -5.9 3.3 -9 7.6 -8.3 20.9 -5.6 23.8 4.9 1.7 6.3 1.1 6.7 -9.1 6.7 -4.9 0 -9 0.4 -9 0.8 0 1.6 3.6 4.2 5.7 4.2 1.1 0 2.6 -0.7 3.3 -1.5 0.7 -0.9 2.9 -1.5 5.2 -1.5 3.5 0 3.9 0.2 3.6 2.2 -0.5 3.6 -6.3 6.8 -12.2 6.7 -2.8 0 -6 -0.4 -7.2 -0.9z m10.6 -18 c-0.7 -1.3 -2.1 -2 -4 -2 -1.9 0 -3.3 0.7 -4 2 -1 1.9 -0.8 2 4 2 4.8 0 5 -0.1 4 -2z"/>
  <path d="M66.7 34.3 c-0.4 -0.3 -0.7 -8.2 -0.7 -17.5 l0 -16.8 4.5 0 4.5 0 0 8.5 c0 4.7 0.3 8.5 0.8 8.5 0.4 0 2.1 -2 3.7 -4.5 l3 -4.5 9.1 0 9 0 2.4 7.6 c1.3 4.1 2.6 7.7 3 7.9 0.3 0.2 1.6 -3.2 2.9 -7.6 l2.4 -7.9 4.3 0 c2.4 0 4.4 0.1 4.4 0.3 0 0.8 -8.1 23.1 -9.1 24.9 -0.8 1.5 -1.9 1.8 -5.7 1.6 l-4.7 -0.3 -4.5 -12.2 c-2.5 -6.8 -4.7 -12.3 -5 -12.3 -0.7 0.1 -7 9.4 -7 10.4 0 0.4 1.8 3.4 4 6.6 2.2 3.2 4 6.4 4 6.9 0 0.6 -2 1.1 -4.5 1.1 -4.4 0 -4.7 -0.2 -7.7 -5 -1.7 -2.7 -3.5 -5 -3.9 -5 -0.5 0 -0.9 2.3 -0.9 5 l0 5 -3.8 0 c-2.1 0 -4.2 -0.3 -4.5 -0.7z"/>
  <path d="M122 21.5 l0 -13.5 2.5 0 2.4 0 -2.4 -2.6 c-3.8 -4.1 -3.2 -5.4 2 -5.4 l4.5 0 0 17.5 0 17.5 -4.5 0 -4.5 0 0 -13.5z"/>
  <path d="M134.7 34.3 c-0.4 -0.3 -0.7 -8.2 -0.7 -17.5 l0 -16.8 4.5 0 4.5 0 0 8.5 c0 4.7 0.3 8.5 0.8 8.5 0.4 0 2.1 -2 3.7 -4.5 2.8 -4.1 3.3 -4.5 7.3 -4.5 2.3 0 4.2 0.4 4.2 0.8 0 0.5 -1.6 3.1 -3.5 5.8 -1.9 2.7 -3.5 5.2 -3.5 5.6 0 0.4 1.8 3.5 4 6.9 2.2 3.4 3.7 6.5 3.4 7 -0.3 0.5 -2.3 0.9 -4.5 0.9 -3.6 0 -4.1 -0.4 -7.1 -5 -1.8 -2.7 -3.6 -5 -4 -5 -0.5 0 -0.8 2.3 -0.8 5 l0 5 -3.8 0 c-2.1 0 -4.2 -0.3 -4.5 -0.7z"/>
 </g>
</svg>