<svg id="support-1827769-200" xmlns="http://www.w3.org/2000/svg" viewBox="0 0 39.409 36.334">
  <g id="noun_help-center_1827769">
    <path id="Path" d="M23.971,37.62c.266-1.121.9-3.8.9-3.8,0-.757-.514-1.15-1.261-1.261a26.962,26.962,0,0,1-4.893-1.23,1.551,1.551,0,0,0-1.262.254l-2.844,2.36a26.866,26.866,0,0,1-5.041-3.838,26.892,26.892,0,0,1-3.836-5.041l2.36-2.845a1.549,1.549,0,0,0,.252-1.261,27.132,27.132,0,0,1-1.23-4.894c-.112-.748-.5-1.261-1.26-1.26l-3.8.9A1.64,1.64,0,0,0,.7,17.506,20.952,20.952,0,0,0,7.134,32.545a20.958,20.958,0,0,0,15.039,6.436A1.639,1.639,0,0,0,23.971,37.62Z" transform="translate(-0.697 -2.647)" fill="#fff" fill-rule="evenodd"/>
    <path id="Shape" class="cta-ph__vector" d="M27.269,1.044C19.388,1.044,13,6.291,13,12.763a10.6,10.6,0,0,0,3.671,7.825A9.288,9.288,0,0,1,14.7,24.31c-1.113,1.185,2.287,1.006,5.494-1.379a16.626,16.626,0,0,0,7.069,1.548c7.882,0,14.272-5.246,14.272-11.717S35.152,1.044,27.269,1.044Zm-.837,4.067a1.593,1.593,0,0,1,2.23.021A1.559,1.559,0,0,1,29.1,6.2h.009l-.02.139-.007,0a1.564,1.564,0,0,1-.422.99,1.554,1.554,0,0,1-2.679-1.094A1.52,1.52,0,0,1,26.431,5.111ZM30.647,19.56a.693.693,0,0,1-.733.732H25.069a.692.692,0,0,1-.732-.732v-.833a.693.693,0,0,1,.732-.734H26.2v-6.96H24.907a.687.687,0,0,1-.721-.732V9.469a.687.687,0,0,1,.721-.732h3.148a.692.692,0,0,1,.6.271.847.847,0,0,1,.149.527v8.458h1.106a.694.694,0,0,1,.733.734v.831Z" transform="translate(-2.13 -1.044)" fill="#fff"/>
  </g>
</svg>
